<svg id="Layer_1" data-name="Layer 1" xmlns="http://www.w3.org/2000/svg" viewBox="0 0 974.44 251"><defs><style>.cls-1{fill:#e50914;}</style></defs><path class="cls-1" d="M320.3,13.57l-29.3.3v31.7l20.5-.5,20.5-.5v191.9l14.8-.3c8.1-.2,16.6-.6,19-.9l4.2-.5v-29.7c0-16.3.3-59,.7-94.8l.6-65.2,19.9-.7,19.8-.7V12.87l-30.7.2C363.3,13.27,336.3,13.47,320.3,13.57Z" transform="translate(0 -12.87)"/><path class="cls-1" d="M439.7,35.57c-.4,12.4-.7,62.2-.7,110.5v87.8h39v-92h50v-31H478v-67h64v-31H440.3Z" transform="translate(0 -12.87)"/><path class="cls-1" d="M572,123.27v110.4l2.3.6c1.2.3,8.1.6,15.2.6,13.3,0,54,1.4,74.3,2.6l11.2.6v-31.9l-21.7-.7c-12-.3-26.4-.9-32-1.2l-10.3-.6v-93.8c0-51.6-.3-94.5-.6-95.4-.5-1.4-3.2-1.6-19.5-1.6H572Z" transform="translate(0 -12.87)"/><path class="cls-1" d="M200.3,14.57l-38.3.3v69.3c0,38.2-.3,90.4-.7,116.2l-.6,46.8,8.4-.6c13.1-1.1,75.2-5.5,87.2-6.2l10.7-.7v-32l-8.7.6c-4.9.4-16.9,1.1-26.8,1.6s-21,1.3-24.7,1.6l-6.8.6v-67.9l11.8-.6c6.4-.4,18.6-1,27-1.3l15.2-.7v-31.9l-18.7.6c-10.4.4-22.5.9-27,1.2l-8.3.6V47.17l33.2-.7c18.3-.4,33.5-.9,33.8-1.2s.7-7.5.9-16l.3-15.4-14.8.2C245.2,14.27,221.3,14.47,200.3,14.57Z" transform="translate(0 -12.87)"/><path class="cls-1" d="M703.2,126.57l.3,112.8,28,1.7c31.2,1.9,68,4.5,73.8,5.3l3.7.5v-32.7l-6.7-.6c-3.8-.3-18.7-1.4-33.3-2.3s-26.6-1.7-26.6-1.8-.5-15.1-.9-33.5l-.8-33.4,18.4.7c10.1.3,22.3.9,27.2,1.3l8.7.6v-33.1l-25.7-.7c-14.2-.3-26.4-.8-27-1-1-.3-1.3-7.7-1.3-32.1V46.57l34,.7,34,.6v-16c0-12-.3-16.2-1.2-16.4-.7-.3-24.6-.7-53.1-1l-51.7-.6Z" transform="translate(0 -12.87)"/><path class="cls-1" d="M94.3,16.57,88,17l-.1,70.7-.1,70.7-5.4-19c-3-10.5-11.3-39.9-18.5-65.5s-13.7-48.8-14.5-51.5l-1.4-5-24,.3L0,18v122.9c0,115.4.1,123,1.7,123,2.4,0,27.3-2.9,30.1-3.5l2.2-.5v-87.3c0-48.6.4-86.5.9-85.7s3.2,9.8,6,20c14.3,51.4,41.5,146.6,42,147.2s38.1-2.9,38.7-3.5c.1-.1.5-53,1-117.5l.7-117.2-11.4.2C105.6,16.17,97.7,16.37,94.3,16.57Z" transform="translate(0 -12.87)"/><path class="cls-1" d="M838,16.17c0,.2,2.7,8,6.1,17.3,14.8,41.4,33.9,96.3,33.9,97.8s-18.7,53-36.3,100.2l-6.4,17.2,4.6.6c9.2,1.1,31.1,2.9,31.5,2.5.1-.2,7.1-20,15.5-43.9s15.4-44.2,15.7-45c.5-1.3.6-1.3,1.4,0,.4.8,7.7,22.6,16,48.5s15.4,47.2,15.6,47.4c.4.4,35.2,4.9,38.6,5.1,1.3,0-2.4-12.3-19.9-64.7l-21.6-64.6,5-14.6C953.4,74.87,973,18.47,973,18.17s-8-.3-17.9-.3H937.3L925,54.07c-6.8,20-13.6,39.6-15,43.7l-2.7,7.4-14.9-44.4-14.9-44.4-19.7-.3C846.9,16,838,16,838,16.17Z" transform="translate(0 -12.87)"/></svg>